# xmcd
#
# Track frame offsets: 
#        150
#        15932
#        30877
#        47182
#        63075
#        77800
#        89957
#        103067
#        118182
#        128880
#        140507
#        157322
#        174765
#        192095
#        207727
#        224677
#        240217
#        259000
#        275575
#
# Disc length: 3898 seconds
#
# Revision: 3
# Processed by: cddbd v1.5.2PL0 Copyright (c) Steve Scherf et al.
# Submitted via: ExactAudioCopy v1.0b3
#
DISCID=130f3813
DTITLE=Various Artist - 幻の名盤解放 藤本卓也作品集*キング編 君が欲しい
DYEAR=1993
DGENRE=Japan-Pops
TTITLE0=林和也 - 君が欲しい
TTITLE1=佐々木早苗 - 最後の人
TTITLE2=佐々木早苗 - 私の宝
TTITLE3=佐々木早苗 - 恋の味
TTITLE4=佐々木早苗 - あなたがこわい
TTITLE5=紀本ヨシオ - だから泣かないで
TTITLE6=紀本ヨシオ - ひとりぼっちのビギン
TTITLE7=紀本ヨシオ - 砂に咲く花
TTITLE8=津々美洋とオール・スターズ・ワゴン - 戦場の星
TTITLE9=ザ・ライジング・サン・トリオ - 戦場の星
TTITLE10=ザ・キャラクターズ - 恋の人魚姫
TTITLE11=ザ・キャラクターズ - 窓ぎわの女
TTITLE12=鳳けい子 - 雨の連絡船
TTITLE13=水木炎 - アモーレ港
TTITLE14=水木炎 - 恋人さがし
TTITLE15=原みつるとシャネル・ファイブ - 信ずる他にない
TTITLE16=原みつるとシャネル・ファイブ - 白い慕情
TTITLE17=原みつるとシャネル・ファイブ - 稚内ブルース
TTITLE18=林和也 - 島の乙女
EXTD=
EXTT0=
EXTT1=
EXTT2=
EXTT3=
EXTT4=
EXTT5=
EXTT6=
EXTT7=
EXTT8=
EXTT9=
EXTT10=
EXTT11=
EXTT12=
EXTT13=
EXTT14=
EXTT15=
EXTT16=
EXTT17=
EXTT18=
PLAYORDER=
